<?xml version="1.0" encoding="UTF-8"?>
<svg version="1.1" xmlns="http://www.w3.org/2000/svg" width="1053" height="1053">
<path d="M0 0 C347.49 0 694.98 0 1053 0 C1053 347.49 1053 694.98 1053 1053 C705.51 1053 358.02 1053 0 1053 C0 705.51 0 358.02 0 0 Z " fill="#FF9301" transform="translate(0,0)"/>
<path d="M0 0 C2.81564789 0.0109427 5.63124822 0.0104648 8.44691372 0.00986195 C11.82624134 0.01019853 15.20552183 0.01901833 18.58483887 0.02764893 C20.46591591 0.02931816 20.46591591 0.02931816 22.38499451 0.03102112 C24.12445091 0.0405909 24.12445091 0.0405909 25.89904785 0.050354 C27.42525002 0.0560717 27.42525002 0.0560717 28.98228455 0.06190491 C31.37910592 0.18198372 33.35174144 0.56191954 35.65124512 1.19561768 C37.90390612 1.36525858 40.1600064 1.49102381 42.41687012 1.59014893 C43.78426311 1.65632921 45.15161206 1.72342419 46.5189209 1.7913208 C47.23404846 1.82620605 47.94917603 1.86109131 48.68597412 1.89703369 C62.74756204 2.60214707 76.35869632 4.15045635 90.20935059 6.75811768 C93.57636564 7.36136612 96.94267446 7.78530493 100.33874512 8.19561768 C116.70237872 10.29586083 132.71286623 14.00627347 148.65124512 18.19561768 C150.14978027 18.57846924 150.14978027 18.57846924 151.67858887 18.96905518 C158.24896044 20.69010782 164.69722704 22.78091004 171.1619873 24.85675049 C177.62184763 26.91482679 184.12502007 28.76046721 190.68859863 30.45880127 C194.9868359 31.60320507 198.69209863 33.11519281 202.65124512 35.19561768 C204.2832143 35.65256905 205.91577801 36.10772422 207.55358887 36.54327393 C212.38706565 38.0464222 217.00004936 40.21210403 221.65124512 42.19561768 C223.56737289 42.98858778 225.48403867 43.7802591 227.40124512 44.57061768 C247.04498671 52.7810878 265.85885954 62.19900795 284.65124512 72.19561768 C285.70440918 72.75249268 286.75757324 73.30936768 287.84265137 73.88311768 C294.96084838 77.69606746 301.81397661 81.90244908 308.65124512 86.19561768 C310.06083496 87.07927002 310.06083496 87.07927002 311.49890137 87.98077393 C329.19540667 99.15885426 346.36162474 111.04628832 362.65124512 124.19561768 C363.57034668 124.93167236 364.48944824 125.66772705 365.43640137 126.42608643 C376.62316288 135.47105266 387.4371841 144.95955522 397.96765137 154.75811768 C399.89287925 156.50679628 401.82077864 158.17315648 403.83093262 159.81671143 C406.84736634 162.36104403 409.13579002 165.16417179 411.65124512 168.19561768 C412.43499512 168.81436768 413.21874512 169.43311768 414.02624512 170.07061768 C417.10900913 172.56618854 419.5359481 175.37719767 422.10046387 178.39093018 C423.6780552 180.27273021 423.6780552 180.27273021 425.65124512 182.19561768 C425.89734077 184.39388466 425.89734077 184.39388466 425.89175415 187.18161011 C425.89587814 188.76338799 425.89587814 188.76338799 425.90008545 190.37712097 C425.8928949 191.53877274 425.88570435 192.7004245 425.8782959 193.89727783 C425.87858795 195.1167662 425.87888 196.33625458 425.87918091 197.59269714 C425.87802419 200.94174155 425.8679762 204.29054106 425.85403299 207.6395421 C425.8415521 211.13758661 425.84035723 214.63563418 425.83798218 218.13369751 C425.83175962 224.75998999 425.81533836 231.38621667 425.7952832 238.01248014 C425.77294828 245.55529999 425.76193684 253.09812294 425.75189233 260.64096761 C425.73097277 276.15922243 425.69578178 291.67741158 425.65124512 307.19561768 C423.0082878 304.55379144 420.36549725 301.91187342 417.73205566 299.26055908 C414.88308664 296.39371236 412.03100812 293.52998115 409.17785645 290.66729736 C407.95624676 289.44066048 406.73553631 288.21312736 405.51574707 286.98468018 C399.07053117 280.49507453 392.62896027 274.11819775 385.65124512 268.19561768 C384.14854444 266.80269221 382.64814642 265.40727356 381.15124512 264.00811768 C374.99010706 258.43829628 368.31855782 253.5726836 361.63366699 248.65875244 C359.55545352 247.12491829 357.48907943 245.57611349 355.42468262 244.02374268 C333.07037139 227.24035397 308.91602677 212.90578289 283.76062012 200.74639893 C280.65124512 199.19561768 280.65124512 199.19561768 277.94812012 197.57061768 C275.41943176 196.05684505 272.82440174 195.12424841 270.05749512 194.13311768 C267.18587508 193.01430468 264.43475799 191.70597528 261.65124512 190.38311768 C243.55077162 181.95560364 224.13436516 175.60748745 204.77893066 170.79302979 C200.9194962 169.82976177 197.34581546 168.68607682 193.65124512 167.19561768 C191.9728007 166.8376556 190.28381074 166.52656698 188.58874512 166.25811768 C184.65513331 165.58678126 180.82417529 164.76793047 176.96374512 163.75811768 C166.10080116 160.986097 155.33299702 158.99044842 144.12780762 158.40655518 C141.65124512 158.19561768 141.65124512 158.19561768 139.65124512 157.19561768 C130.19119935 155.63720602 120.66062672 155.01339068 111.08874512 154.65655518 C110.00471909 154.61533539 108.92069305 154.5741156 107.80381775 154.53164673 C96.10867472 154.10912084 84.41635187 153.86958115 72.71374512 153.82061768 C71.61815277 153.81572327 70.52256042 153.81082886 69.39376831 153.80578613 C51.28832836 153.7726353 34.10001677 155.26128249 16.31066895 158.56549072 C10.99232818 159.48127146 5.65378865 160.12268793 0.29577637 160.7588501 C-7.98225688 161.7509054 -16.01291565 162.95799796 -24.02453613 165.28546143 C-27.59679168 166.26352904 -31.18675787 167.10405934 -34.79504395 167.93707275 C-44.81553206 170.25299426 -54.58769851 172.96444907 -64.34875488 176.19561768 C-65.22918457 176.47276611 -66.10961426 176.74991455 -67.01672363 177.03546143 C-71.38186118 178.42539335 -75.4833803 180.12507023 -79.64562988 182.03155518 C-83.10592695 183.52168311 -86.62856073 184.82737702 -90.16125488 186.13311768 C-108.23237176 192.83867331 -125.4478859 200.95751796 -142.34875488 210.19561768 C-142.94510742 210.52142822 -143.54145996 210.84723877 -144.15588379 211.18292236 C-160.92528851 220.41159391 -176.87562905 230.94798635 -192.34875488 242.19561768 C-193.89756348 243.31516846 -193.89756348 243.31516846 -195.47766113 244.45733643 C-208.77001836 254.24123474 -221.29465913 264.93520724 -233.34875488 276.19561768 C-234.41062416 277.15739137 -235.47447384 278.11698249 -236.54016113 279.07452393 C-241.34934611 283.40425439 -246.03322564 287.69516443 -250.13391113 292.72296143 C-252.56264919 295.66712299 -255.36967893 298.25751627 -258.12219238 300.89483643 C-263.67479975 306.30478787 -268.50404542 312.15221722 -273.34875488 318.19561768 C-274.78573363 319.92521754 -276.22323714 321.65438155 -277.66125488 323.38311768 C-286.50868787 334.21039581 -294.76735605 345.44675619 -302.34875488 357.19561768 C-303.08389226 358.31576373 -303.81959075 359.43554169 -304.55578613 360.55499268 C-309.81500891 368.59328765 -314.67929312 376.80253395 -319.34875488 385.19561768 C-319.8605127 386.10698486 -320.37227051 387.01835205 -320.89953613 387.95733643 C-327.25507232 399.41785854 -333.08834592 411.19371374 -338.34875488 423.19561768 C-338.8192627 424.25909424 -339.28977051 425.3225708 -339.77453613 426.41827393 C-347.41253833 443.92449602 -354.35422003 462.05892461 -358.70422363 480.67999268 C-359.27651727 482.91367209 -359.97642474 484.94123744 -360.84875488 487.07061768 C-364.34282377 495.90640444 -365.53799131 505.69995201 -366.82141113 515.06280518 C-367.34875488 518.19561768 -367.34875488 518.19561768 -368.34094238 522.00030518 C-369.48777605 526.44673556 -369.97393882 530.88231962 -370.41125488 535.44561768 C-370.56625771 537.01358011 -370.72372498 538.5813013 -370.88391113 540.14874268 C-370.94973389 540.830979 -371.01555664 541.51321533 -371.08337402 542.21612549 C-371.34875488 544.19561768 -371.34875488 544.19561768 -371.84436035 546.14898682 C-376.13039913 563.54001445 -374.54274365 583.66257599 -374.53625488 601.44561768 C-374.53707062 602.50002045 -374.53788635 603.55442322 -374.53872681 604.64077759 C-374.53713734 622.8209173 -373.69408529 640.51806198 -370.92956543 658.50372314 C-370.53791269 661.05979819 -370.16039374 663.61768087 -369.78430176 666.17608643 C-368.11731228 677.30857949 -365.91121955 688.23721174 -363.34875488 699.19561768 C-362.84706893 701.44524236 -362.34672018 703.69516649 -361.84875488 705.94561768 C-359.22928878 717.18397223 -355.82204645 728.1583349 -352.07580566 739.06768799 C-351.28027703 741.39603841 -350.50052792 743.72943647 -349.71984863 746.06280518 C-346.20166709 756.46789434 -342.17079538 766.33578543 -337.34875488 776.19561768 C-336.48308213 778.04704513 -335.62825923 779.90321957 -334.77429199 781.7600708 C-329.58168651 793.02956704 -324.31668047 804.30209011 -317.76672363 814.85577393 C-316.26033652 817.34152015 -314.89679335 819.87736835 -313.53625488 822.44561768 C-301.98031182 843.76588472 -286.97797242 865.12146751 -270.46594238 882.86749268 C-268.2941379 885.2556762 -266.2923683 887.72965775 -264.28625488 890.25811768 C-254.24986507 902.66642324 -242.92568498 914.64434196 -230.82531738 925.06280518 C-228.87233023 926.74471525 -226.93207023 928.43836673 -224.99719238 930.14093018 C-206.44453575 946.41978496 -186.74199032 961.26010663 -165.75378418 974.27740479 C-161.45619536 976.98073673 -161.45619536 976.98073673 -160.34875488 979.19561768 C-176.20519607 979.43042969 -192.06115905 979.60614553 -207.91891289 979.7137394 C-215.28398026 979.76505156 -222.64796032 979.83485424 -230.0123291 979.95001221 C-236.43991949 980.05047269 -242.86672174 980.11438239 -249.29507554 980.13650262 C-252.69148453 980.14941105 -256.0856413 980.17918227 -259.48131943 980.25291824 C-275.38379501 980.55968773 -287.46267641 979.90482998 -300.64152908 970.42365456 C-303.13480959 968.630195 -305.74570838 967.03079108 -308.34875488 965.40264893 C-310.02036721 964.27845774 -311.68727393 963.14722902 -313.34875488 962.00811768 C-314.60365723 961.16217041 -314.60365723 961.16217041 -315.88391113 960.2991333 C-320.98302343 956.8511246 -326.03209906 953.33312373 -331.06726074 949.7925415 C-333.33820584 948.20300144 -335.62319896 946.63538965 -337.91125488 945.07061768 C-354.01221685 933.77214044 -369.06972557 921.30068882 -383.3807373 907.8225708 C-386.20757254 905.16181907 -389.06753262 902.56811271 -392.01672363 900.04327393 C-397.13153316 895.59079179 -401.91957114 890.81085026 -406.71179199 886.0178833 C-408.27484222 884.45701441 -409.84572854 882.9043388 -411.41711426 881.35186768 C-417.08879823 875.71111458 -422.38825281 869.95036109 -427.35852051 863.66558838 C-429.45403565 861.06495949 -431.6564944 858.59629075 -433.91125488 856.13311768 C-438.28416524 851.31614241 -442.35537944 846.32995753 -446.34875488 841.19561768 C-446.80202148 840.6202124 -447.25528809 840.04480713 -447.72229004 839.45196533 C-469.52739559 811.74354376 -487.91237947 781.77726836 -504.47375488 750.69561768 C-504.82784424 750.03223389 -505.18193359 749.3688501 -505.54675293 748.68536377 C-507.69490446 744.60150948 -509.5649716 740.45495616 -511.34875488 736.19561768 C-512.15500971 734.401132 -512.96712958 732.60926505 -513.78625488 730.82061768 C-514.4301416 729.40522705 -514.4301416 729.40522705 -515.08703613 727.96124268 C-515.872009 726.24062104 -516.66044665 724.52157046 -517.45422363 722.80499268 C-519.42807027 718.47916786 -521.05743065 714.16915653 -522.50109863 709.64093018 C-523.49085423 706.78569054 -524.65885227 704.03574109 -525.84875488 701.25811768 C-527.79354704 696.68522801 -529.37073957 692.14536731 -530.67297363 687.35186768 C-531.28960573 685.17412624 -531.28960573 685.17412624 -532.36828613 683.19561768 C-533.75527256 680.3663864 -534.1961559 677.49131237 -534.78625488 674.41436768 C-535.26762539 672.17674728 -535.26762539 672.17674728 -536.35266113 670.21124268 C-537.47561194 667.93891869 -537.86898708 665.94127653 -538.28625488 663.44561768 C-538.99860311 659.63538295 -540.05173938 656.25751372 -541.48937988 652.64874268 C-544.43065894 644.25272792 -546.45103093 635.44226743 -547.07922363 626.57452393 C-547.38134706 623.90795632 -548.0140001 621.4709928 -548.72375488 618.88311768 C-550.93954585 610.56303983 -551.89598638 602.0238035 -553.00744629 593.50054932 C-553.23951152 591.93336202 -553.51978222 590.37272314 -553.84216309 588.82159424 C-557.85865671 568.00163984 -557.63921634 545.92177723 -557.59875488 524.82061768 C-557.59731979 523.28321426 -557.59731979 523.28321426 -557.59585571 521.7147522 C-557.56325806 506.73199793 -557.06253439 492.03719851 -554.84875488 477.19561768 C-553.99788764 471.29191571 -553.2282241 465.47317543 -552.97375488 459.50811768 C-552.30333756 447.94341894 -549.56780326 436.54036979 -547.34875488 425.19561768 C-547.02763102 423.5147829 -546.70721426 421.83381272 -546.38781738 420.15264893 C-544.49752678 410.34438957 -544.49752678 410.34438957 -543.34875488 409.19561768 C-543.05401899 407.66253554 -542.80045927 406.12151382 -542.56359863 404.57843018 C-541.28075213 397.23262087 -539.09789744 390.18447132 -536.91125488 383.07061768 C-536.5116377 381.75176732 -536.11254662 380.43275744 -535.71398926 379.11358643 C-531.37833379 364.81092108 -526.39768026 350.92622013 -520.59094238 337.14874268 C-519.77338378 335.2051128 -518.96580019 333.25725188 -518.16906738 331.30499268 C-512.40763166 317.22148312 -505.67171863 303.75365191 -498.49621582 290.34649658 C-497.51284054 288.50319101 -496.54273473 286.65281699 -495.57531738 284.80108643 C-488.02973706 270.46448381 -479.59258366 256.4985447 -470.34875488 243.19561768 C-469.90563965 242.55559814 -469.46252441 241.91557861 -469.00598145 241.25616455 C-459.66315673 227.78801777 -449.86672306 214.77593255 -439.34875488 202.19561768 C-438.91369629 201.67419189 -438.4786377 201.15276611 -438.03039551 200.61553955 C-426.17947377 186.45795039 -413.44093242 173.20285851 -400.41125488 160.13311768 C-399.92079681 159.63998077 -399.43033875 159.14684387 -398.92501831 158.63876343 C-393.24596299 152.93614603 -387.47290428 147.42014668 -381.34875488 142.19561768 C-380.19187407 141.1743656 -379.03689062 140.15095976 -377.88391113 139.12530518 C-369.31806776 131.56742421 -360.44501018 124.54059095 -351.31213379 117.68292236 C-349.53098487 116.33366108 -347.76949472 114.96424311 -346.01672363 113.57843018 C-337.13276751 106.58301315 -327.83125107 100.34488393 -318.34875488 94.19561768 C-317.47477051 93.62762451 -316.60078613 93.05963135 -315.70031738 92.47442627 C-298.71513128 81.46629795 -281.56058621 71.00877565 -263.33996582 62.16925049 C-261.23314178 61.1390869 -259.13770201 60.08825256 -257.04406738 59.03155518 C-256.33145752 58.67214844 -255.61884766 58.3127417 -254.88464355 57.94244385 C-253.53535738 57.26128588 -252.18652355 56.57923075 -250.83825684 55.89605713 C-243.48518416 52.20174582 -235.85892041 49.1528853 -228.24963379 46.03399658 C-224.48939044 44.49159973 -220.73368642 42.94042135 -216.98937988 41.35968018 C-209.2737024 38.11426672 -201.56061511 35.15560217 -193.58703613 32.58624268 C-187.16966238 30.50970865 -180.82221997 28.22082354 -174.46740723 25.96148682 C-165.5116379 22.81238337 -156.52765763 20.78260413 -147.22766113 18.87921143 C-144.46814485 18.48988036 -144.46814485 18.48988036 -143.34875488 17.19561768 C-141.81375959 16.88922534 -140.26989435 16.62712494 -138.72375488 16.38311768 C-134.32264101 15.62911002 -130.11630889 14.59376754 -125.82922363 13.35186768 C-115.80256852 10.57804964 -105.55160636 9.10695506 -95.28625488 7.50811768 C-93.33366608 7.19829372 -91.38119119 6.88775095 -89.42883301 6.57647705 C-85.09842272 5.88703767 -80.76692165 5.20494479 -76.43449402 4.52830505 C-74.62896807 4.24031329 -72.8268536 3.93108503 -71.0255127 3.61798096 C-68.67499711 3.24709515 -66.430626 3.03241586 -64.05578613 2.94952393 C-63.25850098 2.91665283 -62.46121582 2.88378174 -61.63977051 2.84991455 C-60.03828164 2.79060015 -58.43672116 2.73317571 -56.83508301 2.67803955 C-51.98775686 2.4746284 -47.22617777 2.06240245 -42.41204834 1.45068359 C-28.31449689 -0.27570934 -14.17713106 -0.06970444 0 0 Z " fill="#FFFEFE" transform="translate(595.3487548828125,41.80438232421875)"/>
<path d="M0 0 C62.07974637 -0.89562887 62.07974637 -0.89562887 89.39492798 6.11431885 C92.78560319 6.95856963 96.061933 7.55116327 99.51992798 8.0166626 C114.01232175 10.17970644 128.56528795 14.46076836 142.05899048 20.18463135 C143.71423009 20.85433077 145.39878993 21.4523272 147.09414673 22.01275635 C150.607051 23.19236627 154.02842592 24.55453372 157.45742798 25.9541626 C161.77923388 27.71271949 166.08538066 29.37179963 170.51992798 30.8291626 C178.41401374 33.63067273 185.68361039 37.92045451 193.03359985 41.89239502 C195.14089506 43.01068781 197.26551762 44.07821999 199.40664673 45.12994385 C203.18204272 47.00147563 206.79505047 49.07912353 210.39492798 51.2666626 C211.3630542 51.8530249 211.3630542 51.8530249 212.35073853 52.45123291 C214.32773323 53.65426446 216.29988121 54.86479123 218.26992798 56.0791626 C219.14077026 56.61500977 219.14077026 56.61500977 220.02920532 57.16168213 C234.38312309 66.04941567 248.11992492 75.83741541 260.76602173 87.0322876 C263.57624841 89.52001537 266.4892186 91.85506253 269.42227173 94.1963501 C275.24704047 98.94454978 280.57345913 104.07811378 285.85928345 109.40777588 C287.39373014 110.95295638 288.938608 112.48712269 290.48477173 114.02056885 C296.8568459 120.38406628 302.6643828 127.02022165 308.26992798 134.0791626 C309.20432116 135.19983449 310.14339365 136.31664895 311.09024048 137.42681885 C326.43204292 155.49894206 326.43204292 155.49894206 326.38345337 166.01715088 C326.3835994 166.83674286 326.38374542 167.65633484 326.38389587 168.50076294 C326.38319772 171.217027 326.37540985 173.93322298 326.36758423 176.6494751 C326.3657197 178.52991702 326.36429596 180.41035942 326.36329651 182.290802 C326.35947405 187.24578182 326.34964606 192.20073243 326.33859253 197.15570068 C326.32837259 202.20961105 326.32379764 207.26352613 326.3187561 212.31744385 C326.30802357 222.23802961 326.29095037 232.15859368 326.26992798 242.0791626 C323.08505929 238.97601039 320.62414606 235.84219291 318.14492798 232.1416626 C311.48299658 222.35346949 304.37526282 213.05487075 296.34414673 204.3369751 C294.47972385 202.30752797 292.68218244 200.23882104 290.89492798 198.1416626 C283.84395652 190.0834095 276.24244666 182.84137549 267.86367798 176.1807251 C265.5282439 174.28846074 263.33970976 172.31793942 261.14492798 170.2666626 C249.72967008 160.04767507 236.35717016 152.03726381 223.22549438 144.24859619 C221.57502609 143.26161203 219.94183761 142.2458166 218.31289673 141.22369385 C207.86120793 134.78129123 196.48432429 130.01869649 185.26992798 125.0791626 C184.53806274 124.75496338 183.80619751 124.43076416 183.05215454 124.09674072 C173.67423016 119.98885883 164.0741713 117.16678686 154.21524048 114.47369385 C150.91995251 113.56852961 147.68082562 112.57065598 144.44570923 111.4697876 C141.42432125 110.44260873 138.47891498 109.58623757 135.33242798 109.0166626 C130.26992798 108.0791626 130.26992798 108.0791626 128.18501282 107.64646912 C109.27098209 103.73132268 90.48984392 102.58799485 71.20498657 102.68804932 C67.5088142 102.70421119 63.81372501 102.68805107 60.11758423 102.66900635 C46.98056704 102.65788698 34.32683247 103.28537414 21.40068054 105.68826294 C18.43516033 106.23230586 15.45952107 106.70719587 12.48257446 107.18403625 C0.46550467 109.15781643 -11.13712612 112.4970223 -22.74569702 116.1494751 C-25.41792681 116.98192365 -28.1000205 117.75348717 -30.79257202 118.5166626 C-50.54808062 124.44989116 -70.08555856 134.46845466 -87.73007202 145.0791626 C-88.37315308 145.45863037 -89.01623413 145.83809814 -89.67880249 146.22906494 C-116.07062507 161.84341508 -142.14147996 183.18316767 -161.37069702 207.15338135 C-163.81968728 210.19029145 -166.3332133 213.1651051 -168.85507202 216.1416626 C-173.12915984 221.27188511 -177.04436897 226.51383271 -180.73007202 232.0791626 C-181.40425171 233.09107666 -182.0784314 234.10299072 -182.77304077 235.14556885 C-196.59862143 256.13387454 -208.39154343 278.31614551 -216.73007202 302.0791626 C-217.13419312 303.20838135 -217.13419312 303.20838135 -217.54647827 304.3604126 C-221.59317104 316.05556657 -224.43646805 327.93062287 -226.73007202 340.0791626 C-227.04653711 341.65232987 -227.36434195 343.22522799 -227.68319702 344.7979126 C-228.0335669 346.55804887 -228.38247562 348.31847651 -228.73007202 350.0791626 C-228.90651245 350.96378174 -229.08295288 351.84840088 -229.26473999 352.75982666 C-232.40421872 369.19272263 -233.11802252 385.26396257 -233.10507202 401.9541626 C-233.10670349 402.94589478 -233.10833496 403.93762695 -233.11001587 404.95941162 C-233.10792313 416.20112197 -232.68664027 426.99011053 -230.73007202 438.0791626 C-230.47534473 439.80484586 -230.22617147 441.53136314 -229.98397827 443.2588501 C-227.390004 463.06316393 -227.390004 463.06316393 -221.81600952 482.1416626 C-220.75113242 485.02219345 -219.89534343 487.92438019 -219.07406616 490.88238525 C-214.48286298 507.37901421 -207.77239107 522.98614317 -199.73007202 538.0791626 C-199.35656616 538.78750244 -198.9830603 539.49584229 -198.59823608 540.22564697 C-186.92615771 562.24806961 -172.71565453 582.81292109 -155.73007202 601.0791626 C-154.60085082 602.38803262 -153.47571262 603.70043849 -152.35507202 605.0166626 C-145.42961208 612.95442874 -137.81723262 620.33542835 -129.73007202 627.0791626 C-129.21444702 627.51921631 -128.69882202 627.95927002 -128.16757202 628.41265869 C-116.97689473 637.94534223 -105.09699008 646.15014601 -92.73007202 654.0791626 C-92.06781616 654.50632568 -91.4055603 654.93348877 -90.72323608 655.37359619 C-83.2943223 660.14529122 -75.67972322 664.24995476 -67.73007202 668.0791626 C-65.81189538 669.03447002 -63.89511989 669.99259848 -61.98007202 670.9541626 C-60.7503064 671.56904541 -60.7503064 671.56904541 -59.49569702 672.1963501 C-58.91304077 672.48767822 -58.33038452 672.77900635 -57.73007202 673.0791626 C-57.73007202 673.4091626 -57.73007202 673.7391626 -57.73007202 674.0791626 C-68.5880093 674.21880061 -79.44572946 674.32510538 -90.30438519 674.39003563 C-95.3477288 674.42121499 -100.39045359 674.46344 -105.43344116 674.53179932 C-110.30942084 674.59747358 -115.1848091 674.6329691 -120.06119728 674.64842606 C-121.91220204 674.65942684 -123.76317812 674.68090694 -125.61392784 674.71354294 C-137.26859756 674.91069911 -145.46957984 674.06617698 -155.73007202 668.0791626 C-157.32314395 667.27444924 -158.91995211 666.47701285 -160.52304077 665.69244385 C-177.80104894 656.72791207 -194.0095201 646.54663497 -209.73007202 635.0791626 C-210.28920288 634.67455811 -210.84833374 634.26995361 -211.42440796 633.85308838 C-227.27263449 622.36140897 -241.68415478 609.18716873 -255.54257202 595.3916626 C-256.24801147 594.690896 -256.95345093 593.99012939 -257.68026733 593.26812744 C-262.23345787 588.70097006 -266.54653279 583.98603826 -270.73007202 579.0791626 C-271.26881958 578.45243652 -271.80756714 577.82571045 -272.36264038 577.17999268 C-285.22041716 562.1305274 -296.66057241 546.1214318 -306.73007202 529.0791626 C-307.52453171 527.77770114 -308.32017375 526.47696093 -309.11679077 525.17681885 C-315.02724819 515.44308772 -320.08730376 505.46524343 -324.80184937 495.10308838 C-325.5654335 493.4381456 -326.35689575 491.78601666 -327.15585327 490.13775635 C-330.45861259 483.26328338 -332.89291051 476.11397924 -335.32040405 468.89385986 C-335.60383667 468.05782227 -335.88726929 467.22178467 -336.17929077 466.3604126 C-336.43025513 465.60824463 -336.68121948 464.85607666 -336.93978882 464.08111572 C-337.75174143 461.81868184 -337.75174143 461.81868184 -339.73007202 459.0791626 C-340.45506289 456.41425477 -341.11568512 453.76890527 -341.73007202 451.0791626 C-342.06110061 449.71011369 -342.3944026 448.3416123 -342.73007202 446.97369385 C-343.23279027 444.92158226 -343.73539543 442.86955797 -344.23007202 440.81549072 C-344.9289763 437.9789222 -345.66092175 435.24941894 -346.76132202 432.5401001 C-350.38207888 423.34220969 -351.06261052 412.4268716 -351.99569702 402.6350708 C-352.37801769 398.74468754 -352.94272568 394.98323478 -353.73983765 391.15484619 C-354.94765928 384.5680491 -355.07049789 378.10172175 -355.10116577 371.41900635 C-355.11205231 370.12641907 -355.12293884 368.83383179 -355.13415527 367.5020752 C-355.15903218 364.04931835 -355.16670353 360.5967571 -355.16713333 357.14391708 C-355.16757328 355.01055668 -355.17168373 352.87722196 -355.17584229 350.74386597 C-355.22652511 299.07206878 -355.22652511 299.07206878 -348.73007202 286.0791626 C-348.48073632 284.47800684 -348.25628554 282.87296101 -348.04257202 281.2666626 C-344.68854336 260.59992716 -337.34749555 239.12131125 -328.73007202 220.0791626 C-328.25440796 219.00795166 -327.7787439 217.93674072 -327.28866577 216.83306885 C-319.31474206 199.29043669 -310.41414319 182.12978433 -299.73007202 166.0791626 C-299.35286011 165.5105249 -298.97564819 164.94188721 -298.58700562 164.35601807 C-292.99531767 155.981817 -286.96578701 147.97773492 -280.73007202 140.0791626 C-280.00046265 139.15361572 -279.27085327 138.22806885 -278.51913452 137.2744751 C-269.53240651 126.0816189 -259.60096075 115.86401708 -249.48007202 105.7041626 C-248.6404895 104.85990723 -247.80090698 104.01565186 -246.93588257 103.14581299 C-242.02888533 98.25141892 -237.0239733 93.55223012 -231.73007202 89.0791626 C-231.12018433 88.5625708 -230.51029663 88.045979 -229.88192749 87.51373291 C-219.88892858 79.1290778 -209.53278653 71.38695429 -198.73007202 64.0791626 C-198.04864136 63.61800049 -197.36721069 63.15683838 -196.66513062 62.68170166 C-180.53853123 51.84862489 -163.66034679 41.62875197 -145.73007202 34.0791626 C-144.39212408 33.47656625 -143.0549438 32.87226381 -141.71835327 32.2666626 C-136.32925064 29.86736327 -130.85268483 27.71550285 -125.35507202 25.5791626 C-124.39085327 25.20146729 -123.42663452 24.82377197 -122.43319702 24.43463135 C-108.06172336 18.82860074 -93.76754352 14.06432861 -78.66757202 10.7901001 C-75.75329449 10.13984939 -75.75329449 10.13984939 -73.10897827 9.14044189 C-69.01905985 7.85584107 -64.95023331 7.10835597 -60.73007202 6.38775635 C-59.86616348 6.23763092 -59.00225494 6.08750549 -58.11216736 5.93283081 C-23.73406346 0.01738639 -23.73406346 0.01738639 -8.71200562 0.07330322 C-5.80718446 0.07901107 -2.90444654 0.04366664 0 0 Z " fill="#FFFEFE" transform="translate(694.7300720214844,346.92083740234375)"/>
<path d="M0 0 C3.07767999 0.031243 6.15484263 0.04100176 9.23266602 0.046875 C25.22093475 0.10742993 40.76979668 0.60510793 56.51586914 3.65625 C57.66442383 3.86507812 58.81297852 4.07390625 59.99633789 4.2890625 C65.43398596 5.31526996 70.53923001 6.47478035 75.66430664 8.56689453 C79.02386299 9.86305248 82.53151202 10.64138102 86.01586914 11.53125 C94.9661645 13.90941538 103.13620564 17.39102118 111.51586914 21.28125 C113.17295898 21.97734375 113.17295898 21.97734375 114.86352539 22.6875 C134.82085617 31.39615343 153.01563699 43.11689409 169.51586914 57.28125 C170.54544141 58.12964429 171.5767808 58.97589737 172.60961914 59.8203125 C184.47772888 69.58169931 195.01320432 80.18860743 204.51586914 92.28125 C205.1565332 93.04308594 205.79719727 93.80492187 206.45727539 94.58984375 C218.70465623 109.26195858 229.09661477 126.69739025 236.51586914 144.28125 C236.78254395 144.90370605 237.04921875 145.52616211 237.32397461 146.16748047 C243.31888279 160.18680563 248.56866445 174.27177458 251.51586914 189.28125 C251.68505859 190.10173828 251.85424805 190.92222656 252.02856445 191.76757812 C255.26396995 207.71229101 256.02995988 223.03598279 255.51586914 239.28125 C253.41074656 237.17612742 252.82392403 235.89419906 251.76586914 233.15625 C251.41911133 232.26808594 251.07235352 231.37992188 250.71508789 230.46484375 C249.82711402 228.10751898 248.95587431 225.74709817 248.09790039 223.37890625 C245.62937561 216.60367876 243.2408276 210.13031874 239.39868164 203.98046875 C238.51586914 202.28125 238.51586914 202.28125 238.51586914 199.28125 C237.85586914 199.28125 237.19586914 199.28125 236.51586914 199.28125 C236.19875977 198.64960937 235.88165039 198.01796875 235.55493164 197.3671875 C224.49983909 176.17317029 208.17299476 158.03510855 189.51586914 143.28125 C188.51555664 142.47558594 187.51524414 141.66992188 186.48461914 140.83984375 C164.90590299 123.6477868 139.45875743 111.36084132 112.51586914 105.28125 C111.21949773 104.95235015 109.92397204 104.62010526 108.62915039 104.28515625 C83.41275279 97.85258258 54.91621089 96.13551773 29.51586914 102.28125 C26.14294142 102.81611556 22.76666583 103.292505 19.38305664 103.75390625 C16.29633327 104.32162785 13.48364853 105.26959684 10.51586914 106.28125 C8.91793719 106.62420837 7.31346312 106.93838538 5.70336914 107.21875 C-21.85980572 112.56682871 -49.89551095 130.4468496 -70.23022461 149.21484375 C-72.23043146 151.04865558 -74.27756324 152.79162367 -76.35913086 154.53125 C-89.88686127 166.42913338 -105.70826584 183.95365493 -111.48413086 201.28125 C-112.14413086 201.28125 -112.80413086 201.28125 -113.48413086 201.28125 C-113.59241211 201.82136719 -113.70069336 202.36148438 -113.81225586 202.91796875 C-114.64088708 205.8326309 -115.90484136 208.37007692 -117.23413086 211.09375 C-120.09275126 217.18712507 -122.28917683 223.3238207 -124.32788086 229.73046875 C-125.32159137 232.78210002 -126.42876793 235.73654517 -127.60913086 238.71875 C-133.66121277 255.2823426 -133.6714755 273.38863059 -133.66943359 290.81835938 C-133.67163792 292.9129622 -133.68996084 295.00705053 -133.70874023 297.1015625 C-133.9117078 345.61968263 -110.41777335 389.11375265 -77.48413086 423.28125 C-76.33364258 424.49361328 -76.33364258 424.49361328 -75.15991211 425.73046875 C-54.2936161 447.27396706 -25.83130548 462.24302041 2.51586914 471.28125 C2.51586914 471.61125 2.51586914 471.94125 2.51586914 472.28125 C-3.76055383 472.35623943 -10.0367075 472.41024314 -16.31347656 472.44604492 C-18.44210359 472.46099337 -20.57070058 472.48135955 -22.69921875 472.50756836 C-40.44790183 472.72040232 -55.34030512 470.70065605 -72.23413086 464.90625 C-73.36206055 464.53242187 -74.48999023 464.15859375 -75.65209961 463.7734375 C-82.81571712 461.35519899 -89.6713272 458.55588267 -96.48413086 455.28125 C-97.5227124 454.7864917 -97.5227124 454.7864917 -98.58227539 454.28173828 C-125.65098711 441.23432914 -153.16456244 424.48544581 -172.74975586 401.26171875 C-174.50783204 399.25418582 -176.36638287 397.43520658 -178.29663086 395.59375 C-185.85008988 388.14276038 -191.97658889 379.19453539 -197.96850586 370.47265625 C-199.28939271 368.56281727 -200.65719811 366.70365524 -202.04663086 364.84375 C-204.64196867 361.21196235 -206.7297855 357.34953549 -208.82006836 353.41015625 C-209.98676591 351.21643621 -211.18205912 349.03779822 -212.39819336 346.87109375 C-222.12977313 329.43860474 -228.29464519 310.50631559 -233.48413086 291.28125 C-233.76095703 290.25999023 -234.0377832 289.23873047 -234.32299805 288.18652344 C-238.59565368 271.50869199 -238.97500115 254.89823686 -239.04663086 237.78125 C-239.05557373 236.71801514 -239.0645166 235.65478027 -239.07373047 234.55932617 C-239.14994484 221.0338845 -238.06600243 208.45189615 -234.94140625 195.28343201 C-234.12474129 191.70766144 -233.56063361 188.09183337 -232.97631836 184.47265625 C-232.40786498 181.94168523 -231.45569678 179.68338937 -230.48413086 177.28125 C-230.11288086 175.3940625 -230.11288086 175.3940625 -229.73413086 173.46875 C-228.77096653 168.90518568 -227.2474636 164.63643377 -225.60913086 160.28125 C-225.36453125 159.62922607 -225.11993164 158.97720215 -224.86791992 158.30541992 C-221.54080781 149.61447524 -217.56675499 141.19885921 -213.60913086 132.78125 C-212.99618164 131.45287109 -212.99618164 131.45287109 -212.37084961 130.09765625 C-209.54595424 124.10465393 -206.27646607 118.70563486 -202.48413086 113.28125 C-201.59018587 111.95187556 -200.69819426 110.62118507 -199.80834961 109.2890625 C-191.03769937 96.32268289 -181.25403734 84.62152536 -170.48413086 73.28125 C-169.6990918 72.45367188 -168.91405273 71.62609375 -168.10522461 70.7734375 C-162.60360323 65.12418764 -156.67582532 60.15556266 -150.48413086 55.28125 C-149.47350586 54.476875 -148.46288086 53.6725 -147.42163086 52.84375 C-129.53498944 38.74395741 -109.95828603 26.12815189 -88.48413086 18.28125 C-87.58186768 17.95108887 -87.58186768 17.95108887 -86.66137695 17.61425781 C-58.82390596 7.48047129 -58.82390596 7.48047129 -47.01147461 5.73828125 C-44.3500729 5.30219636 -44.3500729 5.30219636 -41.29272461 4.35327148 C-27.51657942 0.47563985 -14.22589552 -0.14508124 0 0 Z " fill="#FFFEFD" transform="translate(763.484130859375,548.71875)"/>
<path d="M0 0 C0.84973389 0.00043304 1.69946777 0.00086609 2.57495117 0.00131226 C20.01544823 0.04977626 38.33891155 1.02747098 54.375 8.5 C55.76307189 8.98132791 57.15819012 9.44333589 58.5625 9.875 C81.02253809 17.26067863 101.15297486 29.62060747 117.98779297 46.15234375 C119.20709704 47.33688414 120.46232911 48.48420472 121.72265625 49.625 C132.62368056 59.75444546 141.38034242 72.95170268 147.375 86.5 C147.88417969 87.54414062 148.39335938 88.58828125 148.91796875 89.6640625 C156.47560212 105.30183229 160.02647879 121.0910391 159.375 138.5 C156.97448594 136.32967222 156.31457647 135.32826997 155.1875 132.125 C151.34175357 121.26524972 143.78829291 112.12168681 136.375 103.5 C135.83617187 102.81550781 135.29734375 102.13101563 134.7421875 101.42578125 C127.10877822 91.97032704 116.52439051 85.08728946 106.4375 78.5 C105.74027832 78.04326904 105.04305664 77.58653809 104.32470703 77.1159668 C89.27035881 67.49480745 70.25481046 62.3139381 52.6640625 59.97265625 C49.375 59.5 49.375 59.5 47.375 58.5 C24.56221903 56.86538536 1.66141285 59.00328095 -19.625 67.5 C-20.32206055 67.77360352 -21.01912109 68.04720703 -21.73730469 68.32910156 C-51.38378061 80.12423275 -76.38392614 101.72721811 -90.625 130.5 C-92.06072927 134.13514431 -93.35765424 137.75801013 -94.58203125 141.46875 C-95.625 144.5 -95.625 144.5 -96.6953125 146.52734375 C-97.93605402 149.16000957 -98.26379707 151.68915322 -98.6875 154.5625 C-99.15650318 157.69823203 -99.62114553 160.4884366 -100.625 163.5 C-100.83183389 167.58974903 -100.81079505 171.68006261 -100.81030273 175.7746582 C-100.81245108 177.76713177 -100.83084123 179.7595668 -100.84960938 181.75195312 C-100.86854296 194.43114514 -99.74012775 206.23504667 -95 218.0625 C-94.46995361 219.41226929 -94.46995361 219.41226929 -93.92919922 220.78930664 C-90.89716054 228.2752824 -87.24855126 234.85952065 -82.625 241.5 C-81.86729176 242.64634458 -81.1108237 243.79350966 -80.35546875 244.94140625 C-70.86310425 259.08174272 -59.12235915 269.59140122 -44.9375 278.9375 C-44.174375 279.453125 -43.41125 279.96875 -42.625 280.5 C-42.625 280.83 -42.625 281.16 -42.625 281.5 C-49.88981576 281.34542945 -55.43564824 280.05012144 -61.94140625 276.8203125 C-64.46818422 275.57715245 -66.99093957 274.55287343 -69.625 273.5625 C-100.05249473 261.51628363 -124.70504624 236.5537867 -140.625 208.5 C-141.12644531 207.67628906 -141.62789062 206.85257813 -142.14453125 206.00390625 C-146.7232483 198.20269973 -149.13209457 190.12723343 -151.625 181.5 C-152.18720671 179.79157012 -152.74965942 178.08322115 -153.3125 176.375 C-159.07221338 156.34690573 -158.7630972 132.63802613 -153.625 112.5 C-153.37556641 111.52063477 -153.37556641 111.52063477 -153.12109375 110.52148438 C-147.72395979 89.99238596 -137.35359835 71.60312728 -123.625 55.5 C-122.96628906 54.71882812 -122.30757812 53.93765625 -121.62890625 53.1328125 C-117.29873525 48.11893028 -112.75145348 43.68899658 -107.625 39.5 C-107.13789551 39.09523438 -106.65079102 38.69046875 -106.14892578 38.2734375 C-97.46863178 31.08757233 -88.48111171 24.95902484 -78.625 19.5 C-77.62984375 18.94570313 -76.6346875 18.39140625 -75.609375 17.8203125 C-67.86634209 13.73723777 -59.76634571 10.89951954 -51.48681641 8.12988281 C-49.93572135 7.60512209 -48.39421452 7.05212602 -46.85546875 6.4921875 C-42.59941165 4.95672732 -38.72314714 4.18403822 -34.21630859 3.83081055 C-31.37248313 3.4677633 -28.75781183 2.7540552 -25.9921875 2 C-17.33865453 -0.02384927 -8.83989883 -0.04493737 0 0 Z " fill="#FFFDFC" transform="translate(861.625,739.5)"/>
<path d="M0 0 C347.49 0 694.98 0 1053 0 C1053 347.49 1053 694.98 1053 1053 C705.51 1053 358.02 1053 0 1053 C0 705.51 0 358.02 0 0 Z M50 26 C49.28972656 26.5878125 48.57945313 27.175625 47.84765625 27.78125 C25.56048216 46.60343157 8.62103195 77.95223347 4.53440306 106.78112443 C4.01317445 109.92064617 3.27110244 112.91700941 2.46517605 115.99419665 C0.80673887 123.11147273 0.58060173 129.87172655 0.61968327 137.15535355 C0.61624208 138.54164454 0.61149015 139.92793277 0.6055623 141.31421536 C0.59312551 145.10287817 0.5991695 148.891314 0.60839598 152.67997753 C0.61513187 156.80973632 0.60442661 160.93945728 0.59600013 165.06920791 C0.58364728 172.30043737 0.58241483 179.53160192 0.58855057 186.76283836 C0.59765044 197.51624547 0.58960248 208.26959267 0.57825933 219.02299519 C0.55859779 238.23098858 0.55624406 257.43895498 0.56145453 276.64695604 C0.56601269 293.45875063 0.56541129 310.27053455 0.55961418 327.0823288 C0.55885731 329.33793169 0.55810133 331.59353458 0.55734624 333.84913747 C0.55620103 337.24819088 0.55505116 340.6472443 0.55388699 344.0462977 C0.54318254 375.64623385 0.53845614 407.24616643 0.54635715 438.84610367 C0.54665433 440.03718498 0.5469515 441.22826629 0.54725768 442.45544097 C0.54970658 452.12768149 0.55231819 461.79992196 0.55494181 471.47216244 C0.56504319 509.19613952 0.55669068 546.92007209 0.53344727 584.64404297 C0.50736996 627.03590651 0.49452806 669.42774326 0.50163502 711.81961513 C0.50235107 716.34054613 0.50302546 720.86147713 0.50367546 725.38240814 C0.50384527 726.49555988 0.50401508 727.60871163 0.50419003 728.75559524 C0.50649219 745.55268289 0.49851998 762.34974563 0.48538399 779.1468277 C0.47046931 798.25229487 0.46963416 817.35770373 0.4874549 836.46316966 C0.49701384 847.15093929 0.49559129 857.83857288 0.47822021 868.52633341 C0.46771971 875.67174365 0.47184663 882.81705043 0.48770025 889.96245051 C0.49631955 894.02948248 0.49878756 898.09624819 0.48343093 902.16326633 C0.42921875 917.55247199 0.4104712 932.15145086 5 947 C5.3751777 948.8098665 5.73046807 950.6242519 6.046875 952.4453125 C7.00951051 957.41612688 8.54899715 962.11228526 10.25 966.875 C10.5601001 967.74777588 10.8702002 968.62055176 11.18969727 969.51977539 C22.43620798 1000.52747802 44.44915892 1028.89597015 74.5 1043.3125 C89.40834818 1050.17623621 102.88840915 1052.15401325 119.18412209 1052.12863445 C120.62263219 1052.12998249 122.06114193 1052.13176716 123.49965101 1052.13394669 C127.45187777 1052.13866623 131.40408143 1052.13717841 135.35630931 1052.13466892 C139.65645184 1052.1330339 143.95658947 1052.1371783 148.25673044 1052.14057809 C155.79326242 1052.14573036 163.32978799 1052.14714959 170.86632156 1052.14612198 C182.07367298 1052.14459758 193.28101728 1052.14875765 204.48836731 1052.1539966 C225.66955544 1052.16367116 246.85074116 1052.16648089 268.03193124 1052.16705366 C284.38885561 1052.16751309 300.74577903 1052.16957083 317.10270309 1052.17275429 C321.80994332 1052.17365182 326.51718354 1052.17454164 331.22442377 1052.17542917 C332.39463897 1052.17565021 333.56485418 1052.17587126 334.77053045 1052.17609901 C367.69008674 1052.18225388 400.60964271 1052.18619951 433.5291996 1052.18575573 C435.3911949 1052.18573236 435.3911949 1052.18573236 437.29080626 1052.18570852 C443.58247078 1052.18562541 449.87413529 1052.18552637 456.16579981 1052.18542381 C457.41536011 1052.18540387 458.66492041 1052.18538392 459.95234618 1052.18536337 C462.47926234 1052.18532294 465.00617851 1052.18528114 467.53309467 1052.18523798 C506.84742489 1052.18462523 546.16174647 1052.19213145 585.47607422 1052.20581055 C629.63972484 1052.22117058 673.80336979 1052.22977681 717.96702325 1052.22884732 C722.67614961 1052.22877269 727.38527596 1052.22872399 732.09440231 1052.22869301 C733.25391887 1052.22868135 734.41343542 1052.2286697 735.60808884 1052.22865769 C754.26917548 1052.22862692 772.93025463 1052.23501329 791.59133904 1052.24362527 C810.34613697 1052.25210149 829.10092395 1052.25309195 847.85572274 1052.24651595 C858.99710044 1052.24282008 870.13844487 1052.2446538 881.27981905 1052.25445829 C888.72517532 1052.26045656 896.17050748 1052.2591645 903.61586264 1052.25198779 C907.85586752 1052.24810502 912.095808 1052.24733432 916.33580835 1052.25544515 C920.20057197 1052.26277325 924.06521809 1052.26073013 927.92997665 1052.25152128 C929.95912508 1052.24901461 931.98827862 1052.25622305 934.01741391 1052.26394406 C964.06988233 1052.14838223 988.73043829 1040.80526523 1010.25 1020.125 C1020.20307907 1009.7490777 1027.26984285 998.51980063 1033.98364258 985.87304688 C1034.83320178 984.30739274 1035.74186824 982.77400179 1036.6640625 981.25 C1042.77390368 970.95974117 1045.58042283 958.45832662 1048.125 946.875 C1048.28355469 946.17898682 1048.44210937 945.48297363 1048.60546875 944.76586914 C1052.53309307 926.08283685 1052.29333223 907.09319375 1052.26313647 888.10431206 C1052.25892424 884.04951305 1052.26639155 879.99473143 1052.27228898 875.93993682 C1052.28101125 868.84965016 1052.28237732 861.7593924 1052.27878571 854.66910172 C1052.27345895 844.12541859 1052.27959366 833.58176323 1052.28786864 823.03808312 C1052.30307969 803.11025892 1052.30481681 783.18244747 1052.30234561 763.25461868 C1052.30051082 747.867144 1052.30227646 732.47967348 1052.30657005 717.09219933 C1052.30717246 714.87917687 1052.30777366 712.66615442 1052.30837366 710.45313197 C1052.30928093 707.11811426 1052.3101896 703.78309655 1052.31110601 700.44807884 C1052.31953075 669.45757479 1052.3238744 638.4670723 1052.31969929 607.47656727 C1052.31954291 606.30919974 1052.31938654 605.14183221 1052.31922542 603.93908991 C1052.31841967 598.02277599 1052.3175739 592.10646207 1052.31671212 586.19014815 C1052.31654103 585.01520355 1052.31636994 583.84025895 1052.31619367 582.62970997 C1052.31584701 580.2536917 1052.31549849 577.87767342 1052.31514808 575.50165515 C1052.30978864 538.51517279 1052.31772962 501.52871425 1052.33618164 464.54223633 C1052.35690038 422.9637478 1052.36762485 381.38527402 1052.36360615 339.80678004 C1052.36321082 335.37330449 1052.36284927 330.93982893 1052.36250877 326.50635338 C1052.36241804 325.41476047 1052.36232731 324.32316757 1052.36223383 323.19849609 C1052.36106838 306.72769512 1052.36771194 290.25690907 1052.37832069 273.78611183 C1052.3903719 255.05699598 1052.3919323 236.32791298 1052.37953053 217.59879664 C1052.37290338 207.12187568 1052.37452979 196.64503329 1052.38811904 186.16811862 C1052.39636936 179.16474653 1052.39365842 172.16143325 1052.38214377 165.15806593 C1052.37589335 161.17147505 1052.37427099 157.1850374 1052.38600711 153.19845543 C1052.52221924 131.42045842 1052.52221924 131.42045842 1049 110 C1048.47715533 107.48333337 1047.99086109 104.96070803 1047.5 102.4375 C1046.45655163 97.63655619 1045.0369326 93.48125173 1043 89 C1042.47236475 87.08519465 1041.95255717 85.16822694 1041.4375 83.25 C1035.67579889 64.21228798 1023.59775589 47.24281073 1010 33 C1009.21302734 32.11828125 1009.21302734 32.11828125 1008.41015625 31.21875 C996.21508097 18.06172221 978.18996396 6.41378602 960.421875 3.4921875 C958 3 958 3 955.23480872 1.98519459 C951.90375321 0.97068704 949.29199555 0.7480843 945.82118547 0.744699 C944.59298818 0.73866706 943.36479088 0.73263513 942.09937549 0.7264204 C940.74198216 0.72981805 939.38458929 0.73339951 938.02719688 0.73714447 C936.57493498 0.73384386 935.12267483 0.7296707 933.67041767 0.72470427 C929.66597505 0.71356837 925.66161795 0.71491625 921.6571648 0.71825945 C917.30557026 0.71972074 912.95399992 0.70967783 908.60241568 0.70110941 C899.96517811 0.68594128 891.32796526 0.68156287 882.69071576 0.6804513 C872.34717525 0.67862477 862.00365765 0.66529176 851.66012698 0.65175765 C826.65608252 0.61962223 801.65204047 0.60782864 776.64797907 0.59826015 C764.81844029 0.59358907 752.98890345 0.58638379 741.15936618 0.5788694 C700.66410965 0.55319494 660.1688542 0.5317585 619.67358971 0.5248642 C617.13096829 0.52442093 614.58834686 0.52397736 612.04572544 0.52353349 C609.49695478 0.52309221 606.94818413 0.52265125 604.39941347 0.5222106 C599.28613241 0.52132549 594.17285136 0.52043126 589.05957031 0.51953125 C587.79177168 0.51931247 586.52397305 0.51909369 585.21775627 0.51886827 C544.12257779 0.51160933 503.02746991 0.47977931 461.93231846 0.43315052 C418.48313933 0.38394092 375.03400054 0.35651784 331.58479273 0.35412836 C326.81346233 0.35378546 322.04213194 0.3533546 317.27080154 0.3528595 C316.09596795 0.35274796 314.92113435 0.35263642 313.71069974 0.35252151 C294.81515882 0.35022151 275.91969041 0.32818583 257.02417396 0.29908539 C238.02357565 0.27032964 219.02307014 0.26389589 200.02245604 0.27996534 C188.73984995 0.28886632 177.45754374 0.28120359 166.17497715 0.24948833 C158.62899902 0.22994188 151.08323023 0.23238923 143.53725387 0.25236079 C139.24367732 0.2631117 134.95067519 0.26467481 130.65714698 0.23934335 C99.71463437 0.06839851 74.21891271 5.34630794 50 26 Z " fill="#FFFAF8" transform="translate(0,0)"/>
<path d="M0 0 C0.66 0.33 1.32 0.66 2 1 C-3.61 6.61 -9.22 12.22 -15 18 C-15.66 17.67 -16.32 17.34 -17 17 C-11.6749489 10.87372593 -6.27309565 5.16205691 0 0 Z " fill="#FF9B29" transform="translate(53,23)"/>
<path d="M0 0 C0.33 0 0.66 0 1 0 C1 6.93 1 13.86 1 21 C0.34 21 -0.32 21 -1 21 C-3.09230769 16.56923077 -3.09230769 16.56923077 -2.625 13.6875 C-2.41875 13.130625 -2.2125 12.57375 -2 12 C-1.67 12.99 -1.34 13.98 -1 15 C-0.67 10.05 -0.34 5.1 0 0 Z " fill="#FFAE6F" transform="translate(1019,771)"/>
</svg>
